<svg version="1.1" id="Layer_1" xmlns="http://www.w3.org/2000/svg" xmlns:xlink="http://www.w3.org/1999/xlink" x="0px" y="0px"
	 width="100%" viewBox="0 0 922 739" enable-background="new 0 0 922 739" xml:space="preserve">
<path fill="#000000" opacity="1.000000" stroke="none" 
	d="
M480.000000,740.000000 
	C320.000061,740.000000 160.500092,740.000000 1.000107,740.000000 
	C1.000071,493.666779 1.000071,247.333572 1.000036,1.000272 
	C308.333130,1.000181 615.666260,1.000181 922.999512,1.000091 
	C922.999695,247.333054 922.999695,493.666107 922.999878,739.999573 
	C775.500000,740.000000 628.000000,740.000000 480.000000,740.000000 
M250.860306,335.356110 
	C278.558868,383.316071 306.262756,431.272949 333.954010,479.237122 
	C350.668762,508.188873 367.352600,537.158508 384.097412,566.092896 
	C385.050354,567.739563 385.517029,570.555847 389.166931,569.558777 
	C390.466827,568.618713 391.922638,567.834961 393.044189,566.716125 
	C443.777863,516.105835 494.507568,465.491486 545.184143,414.824005 
	C624.027710,335.994476 702.832153,257.125732 781.660156,178.280609 
	C782.880432,177.060043 784.189819,175.928650 785.149109,175.041061 
	C786.491028,176.665710 787.443481,177.818787 788.395935,178.971863 
	C789.203125,177.504349 790.472778,176.116699 790.742249,174.556320 
	C792.464050,164.586334 792.302490,164.426010 782.529541,166.300934 
	C780.964355,166.601212 779.586060,167.874985 778.121338,168.698700 
	C779.348877,169.730453 780.576477,170.762192 782.834900,172.660370 
	C781.161255,173.866974 779.341125,174.839371 777.944275,176.235306 
	C722.657837,231.485245 667.421997,286.785736 612.153870,342.053955 
	C537.677551,416.530334 463.180328,490.985687 388.189606,564.950562 
	C342.570007,485.953064 296.950378,406.955566 250.826599,327.085052 
	C249.561752,328.927795 248.829163,329.995087 247.756424,331.649231 
	C247.485992,332.067444 247.196533,332.474640 246.947830,332.905365 
	C191.267166,429.337646 135.591049,525.772583 79.910233,622.204773 
	C66.426888,645.556274 52.924202,668.896484 39.441078,692.248047 
	C37.192093,696.143066 37.217411,696.157715 40.953983,697.651367 
	C41.707260,696.397095 42.493427,695.131104 43.238430,693.841309 
	C84.364685,622.640320 125.502983,551.446289 166.605209,480.231384 
	C194.560883,431.794617 222.465530,383.328430 250.860306,335.356110 
M377.193329,225.975586 
	C377.531830,227.167114 378.170410,228.360199 378.164246,229.549957 
	C378.056183,250.379105 377.860779,271.207764 377.716217,292.036774 
	C377.705261,293.615387 377.933411,295.195618 378.050903,296.782288 
	C384.339752,296.782288 390.128357,296.782288 396.231934,296.782288 
	C396.231934,265.156342 396.231934,233.755508 396.231934,201.790466 
	C388.349457,201.790466 380.717438,201.946350 373.096985,201.717682 
	C369.810944,201.619080 368.536987,202.876526 367.561066,205.910507 
	C360.886475,226.660324 354.003693,247.343185 347.172394,268.042511 
	C346.627380,269.693970 345.965271,271.306793 344.934784,274.072235 
	C343.983826,271.408295 343.400574,269.943359 342.934113,268.442078 
	C336.466492,247.625748 330.056671,226.791183 323.476593,206.010529 
	C322.973846,204.422882 321.343353,202.055450 320.154053,202.004959 
	C311.885895,201.653854 303.595764,201.819595 295.050079,201.819595 
	C295.050079,233.802750 295.050079,265.215363 295.050079,296.603027 
	C301.059723,296.603027 306.787811,296.603027 312.377319,296.603027 
	C312.377319,272.537537 312.377319,248.876938 312.377319,225.216324 
	C312.554749,225.167938 312.732178,225.119553 312.909637,225.071167 
	C320.272308,249.003922 327.634979,272.936676 335.040161,297.007568 
	C339.916321,297.007568 344.429749,296.725861 348.889374,297.094604 
	C352.614166,297.402557 354.014862,295.854828 355.096619,292.517914 
	C362.228821,270.517700 369.565155,248.583649 377.193329,225.975586 
M176.606918,260.627991 
	C176.925034,266.528564 177.350067,272.427704 177.431427,278.331543 
	C177.442078,279.104492 175.700897,280.563538 174.752243,280.579437 
	C168.976028,280.676208 162.963409,281.425018 157.462051,280.125641 
	C145.594467,277.322662 141.973572,267.643921 140.451599,256.831543 
	C136.734344,230.423401 152.442444,213.813049 177.275085,218.110535 
	C181.761688,218.886993 186.075317,220.662964 190.726608,222.054626 
	C192.938248,216.685196 195.045090,211.570206 197.195206,206.350113 
	C182.375870,200.160477 167.746841,198.742157 152.970123,202.308121 
	C136.654312,206.245514 125.602158,216.399841 121.238113,232.894791 
	C118.111038,244.714294 118.433983,256.661377 121.661400,268.450409 
	C126.323235,285.479004 137.363174,295.684296 154.973709,297.730133 
	C168.317642,299.280334 181.596161,297.870270 194.424866,293.721893 
	C195.770401,293.286774 197.207092,290.648132 197.233429,289.009857 
	C197.455566,275.187683 197.371124,261.360352 197.338303,247.534668 
	C197.335297,246.267456 197.050064,245.000885 196.896179,243.736450 
	C184.415939,243.736450 172.323166,243.736450 159.932175,243.736450 
	C159.932175,249.266403 159.932175,254.483627 159.932175,260.323151 
	C165.368820,260.323151 170.495804,260.323151 176.606918,260.627991 
M258.499847,218.190094 
	C263.776031,218.190094 269.052216,218.190094 274.561859,218.190094 
	C274.561859,212.478165 274.561859,207.420258 274.561859,202.100357 
	C256.339081,202.100357 238.443069,202.100357 220.289795,202.100357 
	C220.289795,233.769485 220.289795,265.147980 220.289795,296.549652 
	C238.604645,296.549652 256.620148,296.549652 274.414459,296.549652 
	C274.414459,290.860962 274.414459,285.635925 274.414459,279.970276 
	C262.846405,279.970276 251.745712,279.970276 240.447632,279.970276 
	C240.447632,271.781067 240.447632,264.061584 240.447632,255.716660 
	C251.160049,255.716660 261.545258,255.716660 271.930695,255.716660 
	C271.930695,249.870712 271.930695,244.661774 271.930695,239.004578 
	C261.217773,239.004578 250.949677,239.004578 240.399323,239.004578 
	C240.399323,231.980209 240.399323,225.418350 240.399323,218.190140 
	C246.282547,218.190140 251.892105,218.190140 258.499847,218.190094 
z"/>
<path fill="#00BC61" opacity="1.000000" stroke="none" 
	d="
M377.014130,226.301804 
	C369.565155,248.583649 362.228821,270.517700 355.096619,292.517914 
	C354.014862,295.854828 352.614166,297.402557 348.889374,297.094604 
	C344.429749,296.725861 339.916321,297.007568 335.040161,297.007568 
	C327.634979,272.936676 320.272308,249.003922 312.909637,225.071167 
	C312.732178,225.119553 312.554749,225.167938 312.377319,225.216324 
	C312.377319,248.876938 312.377319,272.537537 312.377319,296.603027 
	C306.787811,296.603027 301.059723,296.603027 295.050079,296.603027 
	C295.050079,265.215363 295.050079,233.802750 295.050079,201.819595 
	C303.595764,201.819595 311.885895,201.653854 320.154053,202.004959 
	C321.343353,202.055450 322.973846,204.422882 323.476593,206.010529 
	C330.056671,226.791183 336.466492,247.625748 342.934113,268.442078 
	C343.400574,269.943359 343.983826,271.408295 344.934784,274.072235 
	C345.965271,271.306793 346.627380,269.693970 347.172394,268.042511 
	C354.003693,247.343185 360.886475,226.660324 367.561066,205.910507 
	C368.536987,202.876526 369.810944,201.619080 373.096985,201.717682 
	C380.717438,201.946350 388.349457,201.790466 396.231934,201.790466 
	C396.231934,233.755508 396.231934,265.156342 396.231934,296.782288 
	C390.128357,296.782288 384.339752,296.782288 378.050903,296.782288 
	C377.933411,295.195618 377.705261,293.615387 377.716217,292.036774 
	C377.860779,271.207764 378.056183,250.379105 378.164246,229.549957 
	C378.170410,228.360199 377.531830,227.167114 377.014130,226.301804 
z"/>
<path fill="#00BC62" opacity="1.000000" stroke="none" 
	d="
M176.114838,260.475586 
	C170.495804,260.323151 165.368820,260.323151 159.932175,260.323151 
	C159.932175,254.483627 159.932175,249.266403 159.932175,243.736450 
	C172.323166,243.736450 184.415939,243.736450 196.896179,243.736450 
	C197.050064,245.000885 197.335297,246.267456 197.338303,247.534668 
	C197.371124,261.360352 197.455566,275.187683 197.233429,289.009857 
	C197.207092,290.648132 195.770401,293.286774 194.424866,293.721893 
	C181.596161,297.870270 168.317642,299.280334 154.973709,297.730133 
	C137.363174,295.684296 126.323235,285.479004 121.661400,268.450409 
	C118.433983,256.661377 118.111038,244.714294 121.238113,232.894791 
	C125.602158,216.399841 136.654312,206.245514 152.970123,202.308121 
	C167.746841,198.742157 182.375870,200.160477 197.195206,206.350113 
	C195.045090,211.570206 192.938248,216.685196 190.726608,222.054626 
	C186.075317,220.662964 181.761688,218.886993 177.275085,218.110535 
	C152.442444,213.813049 136.734344,230.423401 140.451599,256.831543 
	C141.973572,267.643921 145.594467,277.322662 157.462051,280.125641 
	C162.963409,281.425018 168.976028,280.676208 174.752243,280.579437 
	C175.700897,280.563538 177.442078,279.104492 177.431427,278.331543 
	C177.350067,272.427704 176.925034,266.528564 176.114838,260.475586 
z"/>
<path fill="#00BD62" opacity="1.000000" stroke="none" 
	d="
M258.000732,218.190125 
	C251.892105,218.190140 246.282547,218.190140 240.399323,218.190140 
	C240.399323,225.418350 240.399323,231.980209 240.399323,239.004578 
	C250.949677,239.004578 261.217773,239.004578 271.930695,239.004578 
	C271.930695,244.661774 271.930695,249.870712 271.930695,255.716660 
	C261.545258,255.716660 251.160049,255.716660 240.447632,255.716660 
	C240.447632,264.061584 240.447632,271.781067 240.447632,279.970276 
	C251.745712,279.970276 262.846405,279.970276 274.414459,279.970276 
	C274.414459,285.635925 274.414459,290.860962 274.414459,296.549652 
	C256.620148,296.549652 238.604645,296.549652 220.289795,296.549652 
	C220.289795,265.147980 220.289795,233.769485 220.289795,202.100357 
	C238.443069,202.100357 256.339081,202.100357 274.561859,202.100357 
	C274.561859,207.420258 274.561859,212.478165 274.561859,218.190094 
	C269.052216,218.190094 263.776031,218.190094 258.000732,218.190125 
z"/>
<path fill="#00BC61" opacity="1.000000" stroke="none" 
	d="
M388.692078,565.450073 
	C463.180328,490.985687 537.677551,416.530334 612.153870,342.053955 
	C667.421997,286.785736 722.657837,231.485245 777.944275,176.235306 
	C779.341125,174.839371 781.161255,173.866974 782.834900,172.660370 
	C780.576477,170.762192 779.348877,169.730453 778.121338,168.698700 
	C779.586060,167.874985 780.964355,166.601212 782.529541,166.300934 
	C792.302490,164.426010 792.464050,164.586334 790.742249,174.556320 
	C790.472778,176.116699 789.203125,177.504349 788.395935,178.971863 
	C787.443481,177.818787 786.491028,176.665710 785.149109,175.041061 
	C784.189819,175.928650 782.880432,177.060043 781.660156,178.280609 
	C702.832153,257.125732 624.027710,335.994476 545.184143,414.824005 
	C494.507568,465.491486 443.777863,516.105835 393.044189,566.716125 
	C391.922638,567.834961 390.466827,568.618713 389.079163,569.036987 
	C388.891632,567.493469 388.791840,566.471741 388.692078,565.450073 
z"/>
<path fill="#00B35D" opacity="1.000000" stroke="none" 
	d="
M250.392990,334.875397 
	C222.465530,383.328430 194.560883,431.794617 166.605209,480.231384 
	C125.502983,551.446289 84.364685,622.640320 43.238430,693.841309 
	C42.493427,695.131104 41.707260,696.397095 40.953983,697.651367 
	C37.217411,696.157715 37.192093,696.143066 39.441078,692.248047 
	C52.924202,668.896484 66.426888,645.556274 79.910233,622.204773 
	C135.591049,525.772583 191.267166,429.337646 246.947830,332.905365 
	C247.196533,332.474640 247.485992,332.067444 248.199356,331.529602 
	C249.225861,332.565094 249.809433,333.720245 250.392990,334.875397 
z"/>
<path fill="#EF2E2E" opacity="1.000000" stroke="none" 
	d="
M250.626648,335.115753 
	C249.809433,333.720245 249.225861,332.565094 248.369446,331.236145 
	C248.829163,329.995087 249.561752,328.927795 250.826599,327.085052 
	C296.950378,406.955566 342.570007,485.953064 388.440857,565.200317 
	C388.791840,566.471741 388.891632,567.493469 388.815918,568.786499 
	C385.517029,570.555847 385.050354,567.739563 384.097412,566.092896 
	C367.352600,537.158508 350.668762,508.188873 333.954010,479.237122 
	C306.262756,431.272949 278.558868,383.316071 250.626648,335.115753 
z"/>
</svg>